<svg xmlns="http://www.w3.org/2000/svg" width="48" height="48" viewBox="0 0 192 192">

  <style>
    @media (prefers-color-scheme: dark) {
      svg { filter: invert(0%) hue-rotate(0deg) saturate(100%) contrast(100%) brightness(1); }
    }
  </style><path fill="#8F9CB7" d="M37 52c17.6 1.3 35.1 3 52.6 4.9 5 .5 9.9 1 14.9 1.6l7.4.8c15.7 1.6 31.4 3.2 47.1 4.7 2.5 9 2.3 18 2.2 27.3.1 1.5.1 3 .1 4.6-.1 21.6-.1 21.6-3.3 28.1-3.3-1.2-6.2-2.7-9.2-4.5-10.5-5.8-24.2-6.5-35.4-2.5-8.1 3.4-14.5 7.7-21.1 13.4-8.4 7.2-18.2 10.8-29.3 9.6-7.6-1.4-13.6-4.8-19.8-9.2-1-.7-2.1-1.3-3.2-1.9-4.2-2.8-4.9-6.4-5.6-11.2-.5-4.6-.6-9.1-.4-13.7l2 1.4c4.9 3.3 9.9 6.2 15.4 8.5.5.2.9.4 1.5.6 11.2 4.5 23.2 3.3 34.1-1.5 4.9-2.6 9.1-6.1 13.4-9.5C113.7 93.1 125.2 90.3 142 93c.5-1 1-1.9 1.5-2.9.3-.5.6-1 .8-1.6.8-1.5.8-1.5.7-3.5-14.8-4.3-28-4.1-41.7 4.1-3.1 2.1-5.9 4.7-8.7 7.2-9.9 8.4-20.7 11.9-33.6 10.7-10.5-1.8-20.6-9.6-28-17-.5-8.3.3-16.4 1.4-24.6.2-1.1.3-2.2.4-3.3 1.1-7.8 1.1-7.8 2.2-10.1"/><path fill="#8F9DB7" d="M154 134c-.5 11.8-9.2 22.9-18.3 30-16 11.4-38.1 14.4-57.1 9.6C64 169.2 52.8 161 45 148c-.7-1.8-.7-1.8-1-3 3.2.5 6 1.4 9.1 2.5 13.1 4.4 27.2 2.7 39-4.6 4.8-3.1 9.3-6.8 13.7-10.4 14.9-11.9 33.5-9.5 48.2 1.5"/><path fill="#8F9CB7" d="M16 17c37.6 3.6 75.1 7.4 112.7 11.3L156 31c.3 1.8.7 3.6 1 5.4.1.6.2 1.1.3 1.7.8 4.6.7 9.2.7 13.9-23.3-2.3-46.7-4.7-70-7-3.3-.3-6.6-.7-10-1-9.5-1-19-1.9-28.6-2.9q-4.35-.45-9-.9c-2.7-.3-5.5-.5-8.3-.8-2.4-.3-4.8-.5-7.3-.8C19 38 19 38 14 37c-.2-5.1 0-9.8 1-14.8l.6-3c.1-.7.3-1.4.4-2.2"/><path fill="#8C9AB1" d="m34 104 6 4c-1 3-1 3-3 4-1.1 2-1.1 2-2 4-1.1-2.6-1.1-4.9-1.1-7.7 0-.8.1-1.6.1-2.4z"/><path fill="#8C91A9" d="M63 137c2.3.3 4.6.7 7 1v2h-7z"/></svg>